<svg width="26" height="26" viewBox="0 0 26 26" fill="none" xmlns="http://www.w3.org/2000/svg">
<path d="M2.16675 10.0284C2.16675 8.0797 3.74644 6.5 5.6951 6.5V6.5C6.87481 6.5 7.97648 5.91041 8.63086 4.92883L8.66675 4.875C9.34355 3.85979 10.483 3.25 11.7031 3.25H14.2971C15.5172 3.25 16.6566 3.85979 17.3334 4.875L17.3693 4.92883C18.0237 5.91041 19.1253 6.5 20.3051 6.5V6.5C22.2537 6.5 23.8334 8.0797 23.8334 10.0284V18.75C23.8334 20.9591 22.0426 22.75 19.8334 22.75H6.16674C3.95761 22.75 2.16675 20.9591 2.16675 18.75V10.0284Z" stroke="#F0F4EF" stroke-width="2" stroke-linecap="round" stroke-linejoin="round"/>
<ellipse cx="13.0001" cy="14.0833" rx="4.33333" ry="4.33333" stroke="#F0F4EF" stroke-width="2" stroke-linecap="round" stroke-linejoin="round"/>
</svg>
