<svg width="24" height="24" viewBox="0 0 24 24" fill="none" xmlns="http://www.w3.org/2000/svg">
<path d="M11.3079 1.74128C11.5645 1.12651 12.4355 1.12651 12.6921 1.74128L15.1486 7.62588C15.2512 7.87157 15.4763 8.04447 15.7402 8.08018L22.2043 8.95507C22.8544 9.04307 23.0862 9.86455 22.5778 10.2794L17.5825 14.3557C17.361 14.5365 17.2616 14.8274 17.326 15.1059L18.9233 22.0085C19.0784 22.6787 18.3248 23.1867 17.7618 22.7915L12.4309 19.0499C12.1723 18.8685 11.8277 18.8685 11.5691 19.0499L6.23818 22.7915C5.67515 23.1867 4.92155 22.6787 5.07662 22.0085L6.67386 15.1059C6.7383 14.8274 6.63882 14.5365 6.41735 14.3557L1.42215 10.2794C0.91382 9.86455 1.14557 9.04307 1.79574 8.95507L8.25986 8.08018C8.52369 8.04447 8.74882 7.87157 8.85138 7.62588L11.3079 1.74128Z" fill="#BFCC94" stroke="#BFCC94" stroke-width="2" stroke-miterlimit="3.3292" stroke-linecap="round" stroke-linejoin="round"/>
</svg>
