<svg width="24" height="24" viewBox="0 0 24 24" fill="none" xmlns="http://www.w3.org/2000/svg">
<path d="M11.3079 1.74122C11.5645 1.12645 12.4355 1.12645 12.6921 1.74122L15.1486 7.62582C15.2512 7.87151 15.4763 8.04441 15.7402 8.08012L22.2042 8.95501C22.8544 9.043 23.0862 9.86449 22.5778 10.2793L17.5825 14.3557C17.361 14.5364 17.2615 14.8273 17.326 15.1058L18.9233 22.0084C19.0784 22.6786 18.3248 23.1866 17.7618 22.7914L12.4309 19.0499C12.1723 18.8684 11.8277 18.8684 11.5691 19.0499L6.23817 22.7915C5.67514 23.1866 4.92155 22.6787 5.07662 22.0085L6.67385 15.1058C6.73829 14.8273 6.63882 14.5364 6.41734 14.3557L1.42214 10.2793C0.913812 9.86449 1.14556 9.04301 1.79573 8.95501L8.25985 8.08012C8.52369 8.04441 8.74881 7.87151 8.85138 7.62582L11.3079 1.74122Z" stroke="#BFCC94" stroke-width="2" stroke-miterlimit="3.3292" stroke-linecap="round" stroke-linejoin="round"/>
</svg>
